<svg height="512pt" 
viewBox="0 0 512 512" 
width="512pt" 
xmlns="http://www.w3.org/2000/svg">
<path d="m482 216h-26c0-22.089844-17.910156-40-40-40-7.578125 0-14.660156 2.109375-20.699219 5.769531h-.011719l-21.570312 74.160157.132812.070312h108.148438c11.050781 0 20-8.949219 20-20s-8.949219-20-20-20zm0 0" fill="#e0f4ff"/>
<path d="m296.875 355c11.019531-12.652344 22.960938-25.4375 34.613281-39-14.472656 0-94.683593 0-140.699219 0 11.726563 13.554688 23.714844 26.324219 34.722657 39zm0 0" fill="#7c8388"/>
<path d="m210 416v86h106v-86c-35.273438 0-70.625 0-106 0zm0 0" fill="#ffda2d"/>
<path d="m250.542969 10.355469c-31.925781 22.003906-57.71875 84.921875-55.671875 157.644531 1.730468 61.378906 23.839844 103.578125 38.128906 140h58.054688c14.191406-34.824219 33.347656-75.394531 34.945312-132 2.859375-101.734375-42.074219-160.652344-75.457031-165.644531zm0 0" fill="#ffda2d"/>
<path d="m166.113281 173c-1.953125-69.332031 21.402344-129.765625 51.25-154.316406-58.082031 23.855468-100.078125 84.976562-96.101562 155.40625 3.417969 60.8125 32.207031 102.746094 63.253906 138.910156h12.574219l1.804687-13.179688c-13.882812-33.484374-31.253906-72.695312-32.78125-126.820312zm0 0" fill="#ff641a"/><path d="m303.632812 23.152344c-3.898437-.859375-7.785156-1.550782-11.632812-2.054688 31.253906 15.109375 66.324219 71.664063 63.785156 161.902344-1.609375 57.144531-21.121094 97.953125-35.355468 133h11.070312c36.601562-42.605469 60.957031-83.613281 64.199219-139.910156 4.355469-77.304688-41.070313-129.925782-92.066407-152.9375zm0 0" fill="#ff641a"/><path d="m98.289062 70c-4.117187-11.648438-15.230468-20-28.289062-20s-24.171875 8.351562-28.289062 20h-11.710938c-11.050781 0-20 8.949219-20 20s8.949219 20 20 20h76.46875l22.222656-40zm0 0" fill="#e0f4ff"/><path d="m482 206h-17.003906c-4.644532-22.792969-24.851563-40-48.996094-40-3.382812 0-6.742188.34375-10.023438 1.015625.671876-101.027344-83.042968-166.335937-158.871093-167-.003907 0-.007813 0-.011719 0-.019531-.0039062-.039062 0-.058594-.0039062-.0625 0-.125-.0039063-.1875-.0039063-.011718 0-.023437.0039063-.03125.0039063-.269531-.00781255-.820312-.0117188-.820312-.0117188-44.992188.00390625-90.320313 20.695312-122.160156 60h-19.191407c-7.054687-12.199219-20.207031-20-34.644531-20s-27.589844 7.800781-34.644531 20h-5.355469c-16.542969 0-30 13.457031-30 30s13.457031 29.988281 30 29.988281h62.613281c-5.265625 18.328125-7.386719 37.332031-6.296875 56.664063 3.632813 64.601562 34.117188 108.289062 66.519532 145.875 11.707031 13.589844 22.75 25.324218 34.050781 38.242187l11.304687 45.230469h-42.191406c-5.523438 0-10 4.476562-10 10s4.476562 10 10 10h10v76c0 5.523438 4.476562 10 10 10h25c5.523438 0 10-4.476562 10-10s-4.476562-10-10-10h-15v-66h120v66h-15c-5.523438 0-10 4.476562-10 10s4.476562 10 10 10h25c5.523438 0 10-4.476562 10-10v-76h10c5.523438 0 10-4.476562 10-10s-4.476562-10-10-10h-42.191406l11.308594-45.234375c11.226562-12.851563 22.226562-24.605469 33.867187-38.144531.03125-.035156.066406-.066406.101563-.105469 12.394531-14.425781 27.929687-33.628906 40.574218-56.515625h102.339844c16.542969 0 30-13.457031 30-30s-13.457031-30-30-30zm-96.28125-30.488281c-3.007812 52.070312-25.105469 90.65625-58.835938 130.488281h-24.199218c16.929687-40.933594 31.855468-78.007812 33.3125-129.71875 1.394531-49.652344-8.5625-106.304688-38.894532-145.09375 54.855469 23.683594 92.429688 76.566406 88.617188 144.324219zm-94.261719 170.488281h-90.917969c-5.800781-6.59375-11.738281-13.128906-17.933593-20.011719h126.734375c-6.246094 6.964844-12.125 13.457031-17.882813 20.011719zm-115.460937-170.28125c-1.59375-56.691406 19.289062-138.210938 60.003906-153.765625v284.046875h-25.105469c-14.652343-36.0625-33.332031-74.671875-34.898437-130.28125zm105.078125 130.28125h-25.074219v-283.734375c43.351562 18.246094 61.628906 95.628906 60.003906 153.453125-1.457031 51.6875-16.964844 85.898438-34.929687 130.28125zm-261.074219-216c0-5.515625 4.484375-10 10-10h11.710938c4.234374 0 8.015624-2.671875 9.425781-6.664062 2.820312-7.976563 10.402343-13.335938 18.863281-13.335938s16.042969 5.359375 18.863281 13.335938c1.410157 3.992187 5.1875 6.652343 9.425781 6.652343h11.621094c-3.824218 6.433594-7.222656 13.121094-10.171875 20.011719h-69.738281c-5.515625 0-10-4.484375-10-10zm175.242188-59.570312c-25.671876 33.453124-40.839844 88.894531-39.238282 145.851562 1.4375 51.023438 15.765625 87.546875 33.269532 129.71875h-24.257813c-28.964844-34.125-55.542969-73.765625-58.730469-130.472656-3.613281-64.035156 33.53125-121.792969 88.957032-145.097656zm13.566406 335.570312h27.191406v40h-17.191406zm47.191406 40v-40h27.191406l-10 40zm226-160h-92.523438c8.003907-18.652344 13.023438-37.726562 15.230469-57.78125 3.566407-1.449219 7.398438-2.21875 11.292969-2.21875 16.542969 0 30 13.457031 30 30 0 5.523438 4.476562 10 10 10h26c5.515625 0 10 4.484375 10 10s-4.484375 10-10 10zm0 0"/><path d="m256 502c0 5.523438-4.476562 10-10 10s-10-4.476562-10-10 4.476562-10 10-10 10 4.476562 10 10zm0 0"/></svg>